<?xml version="1.0" encoding="UTF-8" standalone="no"?>
<!DOCTYPE svg PUBLIC "-//W3C//DTD SVG 1.1//EN"
 "http://www.w3.org/Graphics/SVG/1.1/DTD/svg11.dtd">
<!-- Generated by graphviz version 2.38.0 (20140413.2041)
 -->
<!-- Title: G Pages: 1 -->
<svg width="280pt" height="150pt"
 viewBox="0.00 0.00 280.00 150.00" xmlns="http://www.w3.org/2000/svg" xmlns:xlink="http://www.w3.org/1999/xlink">
<g id="graph0" class="graph" transform="scale(1 1) rotate(0) translate(4 146)">
<title>G</title>
<polygon fill="white" stroke="none" points="-4,4 -4,-146 276,-146 276,4 -4,4"/>
<g id="clust1" class="cluster"><title>cluster_Global</title>
<path fill="none" stroke="gray" d="M20,-8C20,-8 252,-8 252,-8 258,-8 264,-14 264,-20 264,-20 264,-122 264,-122 264,-128 258,-134 252,-134 252,-134 20,-134 20,-134 14,-134 8,-128 8,-122 8,-122 8,-20 8,-20 8,-14 14,-8 20,-8"/>
<text text-anchor="middle" x="136" y="-121.2" font-family="Times New Roman,serif" font-size="11.00" fill="gray">Global</text>
</g>
<!-- \\Figura -->
<g id="node1" class="node"><title>\\Figura</title>
<polygon fill="none" stroke="black" points="100,-79 16,-79 16,-43 100,-43 100,-79"/>
<text text-anchor="start" x="24" y="-64.2" font-family="Courier,monospace" font-size="11.00">«abstract»</text>
<text text-anchor="start" x="37.5" y="-52.2" font-family="Courier,monospace" font-size="11.00">Figura</text>
</g>
<!-- \\Rectangulo -->
<g id="node2" class="node"><title>\\Rectangulo</title>
<polygon fill="none" stroke="black" points="256,-106 172,-106 172,-70 256,-70 256,-106"/>
<text text-anchor="middle" x="214" y="-85.2" font-family="Courier,monospace" font-size="11.00">Rectangulo</text>
</g>
<!-- \\Rectangulo&#45;&gt;\\Figura -->
<g id="edge1" class="edge"><title>\\Rectangulo&#45;&gt;\\Figura</title>
<path fill="none" stroke="black" d="M171.731,-80.7645C152.753,-77.4371 130.053,-73.4574 110.014,-69.944"/>
<polygon fill="none" stroke="black" points="110.57,-66.4882 100.116,-68.2086 109.361,-73.383 110.57,-66.4882"/>
</g>
<!-- \\Circulo -->
<g id="node3" class="node"><title>\\Circulo</title>
<polygon fill="none" stroke="black" points="246,-52 182,-52 182,-16 246,-16 246,-52"/>
<text text-anchor="middle" x="214" y="-31.2" font-family="Courier,monospace" font-size="11.00">Circulo</text>
</g>
<!-- \\Circulo&#45;&gt;\\Figura -->
<g id="edge2" class="edge"><title>\\Circulo&#45;&gt;\\Figura</title>
<path fill="none" stroke="black" d="M181.836,-39.4639C161.226,-43.0773 133.727,-47.8984 109.974,-52.063"/>
<polygon fill="none" stroke="black" points="109.3,-48.6278 100.054,-53.8022 110.508,-55.5226 109.3,-48.6278"/>
</g>
</g>
</svg>
